<?xml version="1.0" encoding="UTF-8"?>
<svg xmlns="http://www.w3.org/2000/svg" width="128" height="128" viewBox="0 0 32 32">

        <rect x="3" y="7" width="26" height="11" rx="2.5" fill="#9be2ee" stroke="#059db7" stroke-width="1.4"></rect>
        <rect x="3" y="7" width="26" height="3.5" rx="1.5" fill="#06B6D4"></rect>
        <rect x="5" y="12" width="22" height="0.9" rx="0.4" fill="#059db7" opacity="0.4"></rect>
        <rect x="5" y="14" width="22" height="0.9" rx="0.4" fill="#059db7" opacity="0.4"></rect>
        <rect x="5" y="16" width="22" height="0.9" rx="0.4" fill="#059db7" opacity="0.4"></rect>
        <circle cx="25" cy="8.5" r="0.7" fill="#22C55E"></circle>
        <g stroke="#06B6D4" stroke-width="1.5" stroke-linecap="round">
          <line x1="10" y1="21" x2="10" y2="27"></line>
          <line x1="7.5" y1="22.5" x2="12.5" y2="25.5"></line>
          <line x1="12.5" y1="22.5" x2="7.5" y2="25.5"></line>
        </g>
        <g stroke="#06B6D4" stroke-width="1.5" stroke-linecap="round">
          <line x1="22" y1="21" x2="22" y2="27"></line>
          <line x1="19.5" y1="22.5" x2="24.5" y2="25.5"></line>
          <line x1="24.5" y1="22.5" x2="19.5" y2="25.5"></line>
        </g>
        <path d="M14 21 Q16 26 18 21" stroke="#06B6D4" stroke-width="1.5" fill="none" stroke-linecap="round" opacity="0.6"></path>
</svg>