<?xml version="1.0" encoding="UTF-8"?>
<svg xmlns="http://www.w3.org/2000/svg" width="128" height="128" viewBox="0 0 32 32">

        <circle cx="27" cy="6" r="2" fill="#a2e1c9" opacity="0.7"></circle>
        <circle cx="29" cy="10" r="1.3" fill="#a2e1c9" opacity="0.6"></circle>
        <circle cx="25" cy="3" r="1" fill="#a2e1c9" opacity="0.5"></circle>
        <path d="M13 3 L21 3 L22 8 L13 8 Z" fill="#139a67"></path>
        <path d="M21 4 L27 4 Q28 4 28 5 L28 7 Q28 8 27 8 L22 8 Z" fill="#139a67"></path>
        <rect x="25" y="4.5" width="3" height="3" fill="#128f60"></rect>
        <path d="M10 9 H22 C24 9 25.5 10.5 25.5 12.5 V26 C25.5 28 24 29.5 22 29.5 H10 C8 29.5 6.5 28 6.5 26 V12.5 C6.5 10.5 8 9 10 9 Z" fill="#16B378"></path>
        <path d="M10 9 H22 C24 9 25.5 10.5 25.5 12.5 V26 C25.5 28 24 29.5 22 29.5 H10 C8 29.5 6.5 28 6.5 26 V12.5 C6.5 10.5 8 9 10 9 Z" fill="#139a67" opacity="0.2"></path>
        <rect x="9" y="14" width="14" height="9" rx="1" fill="white"></rect>
        <circle cx="13" cy="18.5" r="1.8" fill="none" stroke="#16B378" stroke-width="1"></circle>
        <circle cx="17" cy="19.5" r="1.2" fill="none" stroke="#16B378" stroke-width="1"></circle>
        <circle cx="19.5" cy="17.5" r="0.9" fill="none" stroke="#16B378" stroke-width="1"></circle>
        <rect x="8" y="10" width="2" height="18" rx="1" fill="white" opacity="0.3"></rect>
</svg>