<?xml version="1.0" encoding="UTF-8"?>
<svg xmlns="http://www.w3.org/2000/svg" width="128" height="128" viewBox="0 0 32 32">

        <path d="M7 13 V8.5 C7 6.5 8.5 5 10.5 5 H21.5 C23.5 5 25 6.5 25 8.5 V13 Z" fill="#8B5CF6" stroke="#774fd4" stroke-width="1.2" stroke-linejoin="round"></path>
        <path d="M9 12 V9 C9 8 9.5 7.5 10.5 7.5 H21.5 C22.5 7.5 23 8 23 9 V12" fill="#d1befb" opacity="0.6"></path>
        <path d="M3 14 C3 12.5 4 11.5 5.5 11.5 C7 11.5 8 12.5 8 14 V22 L3 22 Z" fill="#774fd4" stroke="#774fd4" stroke-width="1.2" stroke-linejoin="round"></path>
        <path d="M29 14 C29 12.5 28 11.5 26.5 11.5 C25 11.5 24 12.5 24 14 V22 L29 22 Z" fill="#774fd4" stroke="#774fd4" stroke-width="1.2" stroke-linejoin="round"></path>
        <path d="M7 14 V22 H25 V14 Z" fill="#8B5CF6" stroke="#774fd4" stroke-width="1.2"></path>
        <path d="M9 15 H23 Q24 15 24 16 V20 Q24 21 23 21 H9 Q8 21 8 20 V16 Q8 15 9 15 Z" fill="#d1befb" stroke="#774fd4" stroke-width="1"></path>
        <line x1="16" y1="16" x2="16" y2="20" stroke="#774fd4" stroke-width="0.7" opacity="0.5"></line>
        <rect x="3" y="22" width="26" height="2" fill="#774fd4"></rect>
        <rect x="4" y="24" width="3" height="4" rx="0.5" fill="#6f4ac5"></rect>
        <rect x="25" y="24" width="3" height="4" rx="0.5" fill="#6f4ac5"></rect>
</svg>