<?xml version="1.0" encoding="UTF-8"?>
<svg xmlns="http://www.w3.org/2000/svg" width="128" height="128" viewBox="0 0 32 32">

        <rect x="8.5" y="3" width="15" height="27" rx="3" fill="#4f52c1" opacity="0.3"></rect>
        <rect x="8" y="2" width="16" height="28" rx="3" fill="#5558cf"></rect>
        <rect x="9.5" y="5.5" width="13" height="21" rx="1" fill="#6366F1"></rect>
        <rect x="9.5" y="5.5" width="13" height="2" rx="1" fill="white" opacity="0.2"></rect>
        <rect x="13.5" y="3.5" width="5" height="1.2" rx="0.6" fill="#ecedfd"></rect>
        <circle cx="16" cy="28" r="1.2" fill="#ecedfd"></circle>
        <rect x="11" y="9" width="3" height="3" rx="0.7" fill="white" opacity="0.9"></rect>
        <rect x="15" y="9" width="3" height="3" rx="0.7" fill="white" opacity="0.7"></rect>
        <rect x="19" y="9" width="2.5" height="3" rx="0.7" fill="white" opacity="0.9"></rect>
        <rect x="11" y="13" width="3" height="3" rx="0.7" fill="white" opacity="0.7"></rect>
        <rect x="15" y="13" width="3" height="3" rx="0.7" fill="white" opacity="0.9"></rect>
        <rect x="19" y="13" width="2.5" height="3" rx="0.7" fill="white" opacity="0.7"></rect>
        <rect x="11" y="20" width="10.5" height="4.5" rx="1" fill="white" opacity="0.85"></rect>
</svg>