<?xml version="1.0" encoding="UTF-8"?>
<svg xmlns="http://www.w3.org/2000/svg" width="128" height="128" viewBox="0 0 32 32">

        <path d="M16 17 C10 17 7 13 7 7 C13 7 16 11 16 17 Z" fill="#22C55E" stroke="#1daa51" stroke-width="1.2" stroke-linejoin="round"></path>
        <path d="M16 17 C16 11 18 7 24 6 C25 11 22 16 16 17 Z" fill="#a7e8bf" stroke="#1daa51" stroke-width="1.2" stroke-linejoin="round"></path>
        <path d="M16 17 C14 13 14 9 16 5 C18 9 18 13 16 17 Z" fill="#1daa51"></path>
        <path d="M16 17 C15 13 12 11 9 9" stroke="#1daa51" stroke-width="0.7" fill="none"></path>
        <path d="M16 17 C17 13 20 11 22 9" stroke="#1daa51" stroke-width="0.7" fill="none"></path>
        <path d="M7 20 H25 L23 29 H9 Z" fill="#B86B3E" stroke="#1daa51" stroke-width="1.3" stroke-linejoin="round"></path>
        <rect x="6" y="19" width="20" height="2.5" rx="0.5" fill="#D4854B" stroke="#1daa51" stroke-width="1.2"></rect>
        <ellipse cx="16" cy="20" rx="7" ry="0.6" fill="#1b9e4b" opacity="0.5"></ellipse>
</svg>