<?xml version="1.0" encoding="UTF-8"?>
<svg xmlns="http://www.w3.org/2000/svg" width="128" height="128" viewBox="0 0 32 32">

        <rect x="21" y="6" width="3" height="6" fill="#d36b18"></rect>
        <rect x="20.5" y="5.5" width="4" height="1.5" fill="#c46316"></rect>
        <path d="M3 15 L16 4 L29 15 L27 17 L16 8 L5 17 Z" fill="#d36b18" stroke="#d36b18" stroke-width="1" stroke-linejoin="round"></path>
        <path d="M5 16 H27 V28 H5 Z" fill="#fbcba4" stroke="#d36b18" stroke-width="1.2"></path>
        <path d="M13 19 H19 V28 H13 Z" fill="#F57C1B" stroke="#d36b18" stroke-width="1"></path>
        <circle cx="17.5" cy="24" r="0.7" fill="#F5B700"></circle>
        <rect x="7" y="18" width="4.5" height="4.5" rx="0.5" fill="white" stroke="#d36b18" stroke-width="1"></rect>
        <line x1="9.25" y1="18" x2="9.25" y2="22.5" stroke="#d36b18" stroke-width="0.7"></line>
        <line x1="7" y1="20.25" x2="11.5" y2="20.25" stroke="#d36b18" stroke-width="0.7"></line>
        <rect x="20.5" y="18" width="4.5" height="4.5" rx="0.5" fill="white" stroke="#d36b18" stroke-width="1"></rect>
        <line x1="22.75" y1="18" x2="22.75" y2="22.5" stroke="#d36b18" stroke-width="0.7"></line>
        <line x1="20.5" y1="20.25" x2="25" y2="20.25" stroke="#d36b18" stroke-width="0.7"></line>
</svg>