<?xml version="1.0" encoding="UTF-8"?>
<svg xmlns="http://www.w3.org/2000/svg" width="128" height="128" viewBox="0 0 32 32">

        <rect x="4" y="8" width="3" height="16" rx="0.5" fill="#1891d3"></rect>
        <rect x="4" y="8" width="3" height="16" rx="0.5" fill="#a4ddfb" opacity="0.3"></rect>
        <path d="M6 11 H20 Q23 11 23 14 V17 Q23 19 21 19 H18 V16 H20 Q21 16 21 15 V14 Q21 13 20 13 H6 Z" fill="#1BA9F5"></path>
        <path d="M6 11 H20 Q23 11 23 14 V17 Q23 19 21 19 H18 V16 H20 Q21 16 21 15 V14 Q21 13 20 13 H6 Z" fill="white" opacity="0.25"></path>
        <rect x="10" y="5" width="6" height="4" rx="1" fill="#1891d3"></rect>
        <rect x="12" y="3" width="2" height="3" fill="#1891d3"></rect>
        <circle cx="13" cy="3" r="1.3" fill="#1BA9F5"></circle>
        <rect x="18.5" y="20" width="2" height="5" rx="1" fill="#7DD3FC" opacity="0.85"></rect>
        <ellipse cx="19.5" cy="27" rx="2" ry="2.3" fill="#7DD3FC"></ellipse>
        <circle cx="15" cy="28" r="1.2" fill="#7DD3FC" opacity="0.8"></circle>
        <circle cx="24" cy="27" r="1" fill="#7DD3FC" opacity="0.7"></circle>
        <rect x="7" y="11.5" width="13" height="0.8" fill="white" opacity="0.6"></rect>
</svg>