<?xml version="1.0" encoding="UTF-8"?>
<svg xmlns="http://www.w3.org/2000/svg" width="128" height="128" viewBox="0 0 32 32">

        <ellipse cx="16" cy="27" rx="13" ry="1.5" fill="black" opacity="0.15"></ellipse>
        <path d="M9 14 L11 8 Q11.5 6.5 13 6.5 H19 Q20.5 6.5 21 8 L23 14 Z" fill="#9fdbf6" stroke="#0c8ec8" stroke-width="1.3" stroke-linejoin="round"></path>
        <line x1="16" y1="7" x2="16" y2="14" stroke="#0c8ec8" stroke-width="0.8"></line>
        <path d="M3 20 L5 14 Q6 13 7.5 13 H24.5 Q26 13 27 14 L29 20 V24 Q29 25 28 25 H4 Q3 25 3 24 Z" fill="#0EA5E9" stroke="#0c8ec8" stroke-width="1.3" stroke-linejoin="round"></path>
        <path d="M5 17 L7 15 H25 L27 17" stroke="white" stroke-width="0.8" fill="none" opacity="0.6"></path>
        <circle cx="9" cy="25" r="3.2" fill="#0b84bb" stroke="#0c8ec8" stroke-width="1"></circle>
        <circle cx="9" cy="25" r="1.3" fill="#e2f4fc"></circle>
        <circle cx="23" cy="25" r="3.2" fill="#0b84bb" stroke="#0c8ec8" stroke-width="1"></circle>
        <circle cx="23" cy="25" r="1.3" fill="#e2f4fc"></circle>
        <rect x="3" y="18" width="2.5" height="2" rx="0.5" fill="#FFE066"></rect>
        <rect x="26.5" y="18" width="2.5" height="2" rx="0.5" fill="#EF4444"></rect>
        <rect x="12" y="18" width="4" height="0.8" rx="0.4" fill="#0c8ec8" opacity="0.4"></rect>
</svg>